<?xml version="1.0" standalone="no"?>
<!DOCTYPE svg PUBLIC "-//W3C//DTD SVG 20010904//EN"
 "http://www.w3.org/TR/2001/REC-SVG-20010904/DTD/svg10.dtd">
<svg version="1.0" xmlns="http://www.w3.org/2000/svg"
 width="512.000000pt" height="512.000000pt" viewBox="0 0 512.000000 512.000000"
 preserveAspectRatio="xMidYMid meet">
<metadata>
Created by potrace 1.14, written by Peter Selinger 2001-2017
</metadata>
<g transform="translate(0.000000,512.000000) scale(0.100000,-0.100000)"
fill="#000000" stroke="none">
<path d="M2043 4898 c-13 -15 -16 -51 -17 -214 -1 -167 -3 -197 -16 -200 -39
-6 -195 -61 -286 -100 -141 -60 -248 -118 -360 -195 -39 -27 -75 -49 -80 -49
-15 0 -74 66 -79 88 -2 12 7 33 21 49 39 46 36 74 -16 123 -139 130 -163 150
-183 150 -33 0 -487 -456 -487 -489 0 -17 27 -49 96 -115 53 -50 104 -94 114
-98 13 -5 30 2 55 22 43 34 62 32 109 -10 l34 -32 -79 -101 c-185 -238 -326
-523 -393 -797 -29 -119 -32 -137 -52 -265 -10 -68 -13 -406 -4 -475 24 -176
24 -176 55 -300 28 -113 73 -251 86 -265 5 -5 9 -15 9 -23 0 -39 187 -379 252
-457 10 -11 40 -49 68 -85 230 -292 587 -548 940 -675 74 -26 271 -82 320 -89
14 -3 45 -8 70 -11 25 -4 54 -9 65 -11 111 -21 413 -20 555 1 8 1 38 5 65 9
28 4 66 12 85 16 19 5 46 11 60 13 114 21 335 103 490 184 102 53 299 179 351
225 15 13 49 42 75 64 321 273 575 685 678 1099 14 55 27 118 31 140 3 22 11
69 17 105 20 109 16 480 -7 605 -19 104 -29 151 -46 215 -129 483 -419 903
-830 1200 -41 30 -84 60 -95 67 -27 17 -121 72 -169 98 -69 39 -249 112 -353
145 l-100 31 -1 197 c-1 163 -3 199 -16 211 -14 14 -78 16 -516 16 -461 0
-502 -1 -516 -17z"/>
</g>
</svg>
